<svg xmlns="http://www.w3.org/2000/svg" xmlns:xlink="http://www.w3.org/1999/xlink" version="1.1" x="0px" y="0px" viewBox="0 0 100 125" style="enable-background:new 0 0 100 100;" xml:space="preserve"><style type="text/css">
	.st0{display:none;}
	.st1{display:inline;fill:#686868;}
	.st2{display:inline;fill:#FFFFFF;}
	.st3{display:inline;fill:#8CC63F;}
	.st4{fill:#6B7E87;}
	.st5{fill:#FFFFFF;}
	.st6{fill:#B23267;}
	.st7{clip-path:url(#SVGID_2_);fill:#B23267;}
	.st8{fill:#CFAC76;}
	.st9{clip-path:url(#SVGID_4_);fill:#B23267;}
	.st10{clip-path:url(#SVGID_6_);fill:#CFAC76;}
	.st11{fill:none;stroke:#6B7E87;stroke-width:3;stroke-linecap:round;stroke-miterlimit:10;}
</style><g class="st0"><rect x="-35" y="-37" class="st1" width="1253" height="1253"/></g><g><path d="M49.7,70.3c1.9,0,3.9-0.7,5.3-2.2l29.7-29.7c0.6-0.6,0.6-1.6,0-2.2c-0.6-0.6-1.6-0.6-2.2,0L52.9,65.9   c-1.7,1.7-4.5,1.7-6.2,0L17.5,36.7c-0.6-0.6-1.6-0.6-2.2,0c-0.6,0.6-0.6,1.6,0,2.2l29.1,29.1C45.9,69.5,47.8,70.3,49.7,70.3z"/></g><text x="0" y="115" fill="#000000" font-size="5px" font-weight="bold" font-family="'Helvetica Neue', Helvetica, Arial-Unicode, Arial, Sans-serif">Created by Dániel Aczél</text><text x="0" y="120" fill="#000000" font-size="5px" font-weight="bold" font-family="'Helvetica Neue', Helvetica, Arial-Unicode, Arial, Sans-serif">from the Noun Project</text></svg>